<svg width="21" height="26" viewBox="0 0 21 26" fill="none" xmlns="http://www.w3.org/2000/svg">
<g clip-path="url(#clip0_1_64)">
<path d="M10.4869 25.0629C12.5358 25.0629 14.1637 23.3472 14.1919 21.2241H6.78223C6.81042 23.3472 8.43832 25.0629 10.4871 25.0629H10.4869Z" fill="#006657"/>
<path d="M20.6194 15.6686L18.2618 11.6846C17.8689 11.0158 17.6723 10.2596 17.6723 9.4745V7.87501C17.6723 4.53084 15.6235 1.44818 12.5641 0.488522C11.0655 0.0743222 9.1705 0.3158 8.41035 0.488313C5.46328 1.419 3.30219 4.23962 3.30219 7.584V9.47414C3.30219 10.2594 3.10562 11.0154 2.71268 11.6842L0.355121 15.6682C-0.0939931 16.4243 -0.121989 17.3549 0.298933 18.1402C0.719855 18.9254 1.50571 19.3905 2.34776 19.3905H18.5704C19.4404 19.3905 20.1983 18.9252 20.6192 18.1402C21.0687 17.3552 21.0685 16.4246 20.6194 15.6686Z" fill="#006657"/>
</g>
<defs>
<clipPath id="clip0_1_64">
<rect width="21" height="25" fill="white" transform="translate(0 0.11377)"/>
</clipPath>
</defs>
</svg>
