<svg width="22" height="25" viewBox="0 0 22 25" fill="none" xmlns="http://www.w3.org/2000/svg">
<g clip-path="url(#clip0_1_69)">
<path d="M10.9093 24.062C8.32707 24.062 5.73949 24.0673 3.15769 24.0567C1.64149 24.0514 0.606539 23.3473 0.177043 22.0767C-0.247288 20.822 0.0787237 19.4032 1.28963 18.6196C3.23533 17.3649 5.2897 16.2849 7.32331 15.1732C7.53029 15.062 7.91839 15.1784 8.17714 15.3002C10.0504 16.142 11.9029 16.1473 13.7864 15.3214C14.1124 15.1784 14.6092 15.1573 14.9093 15.3108C16.6894 16.2373 18.454 17.1902 20.1822 18.212C21.7398 19.1332 22.3246 20.6791 21.7812 22.1402C21.3155 23.3896 20.3427 24.0461 18.8627 24.0567C16.2132 24.0726 13.5585 24.0673 10.9091 24.062L10.9093 24.062Z" fill="#006657"/>
<path d="M5.13868 7.1708C5.1335 2.79785 8.15036 -0.309934 11.716 0.161515C13.8531 0.442104 15.2607 1.78153 16.1611 3.70856C17.4289 6.42442 16.9011 9.82868 14.9088 11.8723C13.3977 13.4182 11.5814 14.027 9.51663 13.3917C7.18283 12.677 5.92538 10.8929 5.3406 8.55819C5.20606 8.01288 5.17501 7.44114 5.13879 7.17114L5.13868 7.1708Z" fill="#006657"/>
</g>
<defs>
<clipPath id="clip0_1_69">
<rect width="22" height="24" fill="white" transform="translate(0 0.114258)"/>
</clipPath>
</defs>
</svg>
