<svg width="52" height="55" viewBox="0 0 52 55" fill="none" xmlns="http://www.w3.org/2000/svg">
<g filter="url(#filter0_d_1_58)">
<path fill-rule="evenodd" clip-rule="evenodd" d="M30.0888 36.0957C27.9588 37.1018 27.4719 38.7295 27.3197 38.907C27.2588 38.9663 27.2285 39.1143 27.0153 39.1143C26.8022 39.1143 26.8022 39.0255 26.6806 38.907C26.5284 38.759 26.0415 37.1313 23.9116 36.1252C19.3473 34.8231 16.0001 30.7097 16.0001 25.8565C15.97 19.9083 20.8994 15.1143 26.9849 15.1143C33.0704 15.1143 38 19.9083 38 25.8269C38.0002 30.6803 34.6532 34.7936 30.0888 36.0957ZM26.985 20.5299C23.9725 20.5299 21.5687 22.8974 21.5687 25.7974C21.5687 28.6977 23.9727 31.0945 26.985 31.0945C29.9975 31.0945 32.4013 28.727 32.4013 25.827C32.4013 22.9267 29.9975 20.5299 26.985 20.5299Z" fill="white"/>
<path fill-rule="evenodd" clip-rule="evenodd" d="M26.985 20.5299C23.9725 20.5299 21.5687 22.8974 21.5687 25.7974C21.5687 28.6977 23.9727 31.0945 26.985 31.0945C29.9975 31.0945 32.4013 28.727 32.4013 25.827C32.4013 22.9267 29.9975 20.5299 26.985 20.5299ZM26.8765 29.8143C29.0408 29.8143 30.7952 28.108 30.7952 26.0032C30.7952 23.8984 29.0408 22.1921 26.8765 22.1921C24.7122 22.1921 22.9577 23.8984 22.9577 26.0032C22.9577 28.108 24.7122 29.8143 26.8765 29.8143Z" fill="white"/>
</g>
<defs>
<filter id="filter0_d_1_58" x="1.07288e-06" y="0.114259" width="52" height="54" filterUnits="userSpaceOnUse" color-interpolation-filters="sRGB">
<feFlood flood-opacity="0" result="BackgroundImageFix"/>
<feColorMatrix in="SourceAlpha" type="matrix" values="0 0 0 0 0 0 0 0 0 0 0 0 0 0 0 0 0 0 127 0" result="hardAlpha"/>
<feOffset dx="-1"/>
<feGaussianBlur stdDeviation="7.5"/>
<feComposite in2="hardAlpha" operator="out"/>
<feColorMatrix type="matrix" values="0 0 0 0 1 0 0 0 0 1 0 0 0 0 1 0 0 0 0.53 0"/>
<feBlend mode="normal" in2="BackgroundImageFix" result="effect1_dropShadow_1_58"/>
<feBlend mode="normal" in="SourceGraphic" in2="effect1_dropShadow_1_58" result="shape"/>
</filter>
</defs>
</svg>
